<svg height="512" viewBox="0 0 58 58" width="512" xmlns="http://www.w3.org/2000/svg"><g id="Page-1" fill="none" fill-rule="evenodd"><g id="112---RSS" fill-rule="nonzero"><path id="Shape" d="m48 31.66v26.34h-40c-4.418278 0-8-3.581722-8-8v-46c0-2.209139 1.790861-4 4-4h37.5c-6.701481-.00543792-12.7405945 4.0429437-15.2814411 10.2440707-2.5408466 6.2011269-1.0786629 13.3230862 3.6999262 18.0214864 4.778589 4.6984001 11.9242712 6.0398591 18.0815149 3.3944429z" fill="#d1d4d1"/><path id="Shape" d="m58 31v19c0 4.418278-3.581722 8-8 8h-2v-26.34c2.414329-1.0320728 4.5469362-2.6263853 6.22-4.65 2.1216596.1108054 3.783957 1.8654526 3.78 3.99z" fill="#a5a5a4"/><path id="Shape" d="m21 19c0 1.1045695-.8954305 2-2 2h-12c-1.1045695 0-2-.8954305-2-2v-11c0-1.1045695.8954305-2 2-2h12c1.1045695 0 2 .8954305 2 2z" fill="#fff"/><g fill="#2c2f38"><path id="Shape" d="m7 29h-2c-.55228475 0-1-.4477153-1-1s.44771525-1 1-1h2c.55228475 0 1 .4477153 1 1s-.44771525 1-1 1z"/><path id="Shape" d="m21 29h-9c-.5522847 0-1-.4477153-1-1s.4477153-1 1-1h9c.5522847 0 1 .4477153 1 1s-.4477153 1-1 1z"/><path id="Shape" d="m7 39h-2c-.55228475 0-1-.4477153-1-1s.44771525-1 1-1h2c.55228475 0 1 .4477153 1 1s-.44771525 1-1 1z"/><path id="Shape" d="m21 39h-9c-.5522847 0-1-.4477153-1-1s.4477153-1 1-1h9c.5522847 0 1 .4477153 1 1s-.4477153 1-1 1z"/><path id="Shape" d="m21 34h-3c-.5522847 0-1-.4477153-1-1s.4477153-1 1-1h3c.5522847 0 1 .4477153 1 1s-.4477153 1-1 1z"/><path id="Shape" d="m14 34h-9c-.55228475 0-1-.4477153-1-1s.44771525-1 1-1h9c.5522847 0 1 .4477153 1 1s-.4477153 1-1 1z"/><path id="Shape" d="m7 52h-2c-.55228475 0-1-.4477153-1-1s.44771525-1 1-1h2c.55228475 0 1 .4477153 1 1s-.44771525 1-1 1z"/><path id="Shape" d="m21 52h-9c-.5522847 0-1-.4477153-1-1s.4477153-1 1-1h9c.5522847 0 1 .4477153 1 1s-.4477153 1-1 1z"/><path id="Shape" d="m21 47h-3c-.5522847 0-1-.4477153-1-1s.4477153-1 1-1h3c.5522847 0 1 .4477153 1 1s-.4477153 1-1 1z"/><path id="Shape" d="m14 47h-9c-.55228475 0-1-.4477153-1-1s.44771525-1 1-1h9c.5522847 0 1 .4477153 1 1s-.4477153 1-1 1z"/><path id="Shape" d="m29 52h-2c-.5522847 0-1-.4477153-1-1s.4477153-1 1-1h2c.5522847 0 1 .4477153 1 1s-.4477153 1-1 1z"/><path id="Shape" d="m43 52h-9c-.5522847 0-1-.4477153-1-1s.4477153-1 1-1h9c.5522847 0 1 .4477153 1 1s-.4477153 1-1 1z"/><path id="Shape" d="m43 47h-3c-.5522847 0-1-.4477153-1-1s.4477153-1 1-1h3c.5522847 0 1 .4477153 1 1s-.4477153 1-1 1z"/><path id="Shape" d="m36 47h-9c-.5522847 0-1-.4477153-1-1s.4477153-1 1-1h9c.5522847 0 1 .4477153 1 1s-.4477153 1-1 1z"/></g><path id="Shape" d="m58 16.5c0 9.1126984-7.3873016 16.5-16.5 16.5s-16.5-7.3873016-16.5-16.5c0-9.11269837 7.3873016-16.5 16.5-16.5 4.3795747-.01145829 8.583075 1.7232498 11.6799126 4.82008738 3.0968376 3.09683757 4.8315457 7.30033792 4.8200874 11.67991262z" fill="#e57e25"/><circle id="Oval" cx="35" cy="23" fill="#fff" r="2"/><path id="Shape" d="m43 24c-1.1045695 0-2-.8954305-2-2-.0033061-2.7600532-2.2399468-4.9966939-5-5-1.1045695 0-2-.8954305-2-2s.8954305-2 2-2c4.9682782.0055111 8.9944889 4.0317218 9 9 0 1.1045695-.8954305 2-2 2z" fill="#fff"/><path id="Shape" d="m51 24c-1.1045695 0-2-.8954305-2-2-.008266-7.1762751-5.8237249-12.99173398-13-13-1.1045695 0-2-.8954305-2-2s.8954305-2 2-2c9.3845001.01047101 16.989529 7.6154999 17 17 0 1.1045695-.8954305 2-2 2z" fill="#fff"/></g></g></svg>